<svg width="191" height="80" viewBox="0 0 191 80" fill="none" xmlns="http://www.w3.org/2000/svg">
<path d="M44.7344 15.2383C45.6914 15.2383 46.5215 15.5801 47.2246 16.2637C47.9277 16.9668 48.2793 17.8066 48.2793 18.7832V57.4551C48.2793 58.4512 47.9277 59.2812 47.2246 59.9453C46.5215 60.6484 45.6914 61 44.7344 61H44.6465C43.6895 61 42.8594 60.6484 42.1562 59.9453C41.4531 59.2812 41.1016 58.4512 41.1016 57.4551V18.7832C41.1016 17.8066 41.4531 16.9668 42.1562 16.2637C42.8594 15.5801 43.6895 15.2383 44.6465 15.2383H44.7344ZM72.2148 34.4863C69.5195 34.4863 67.2246 35.4336 65.3301 37.3281C63.4551 39.2227 62.5176 41.5176 62.5176 44.2129C62.5176 46.8887 63.4551 49.1738 65.3301 51.0684C67.2246 52.9629 69.5195 53.9102 72.2148 53.9102C74.8906 53.9102 77.1758 52.9629 79.0703 51.0684C80.9648 49.1738 81.9121 46.8887 81.9121 44.2129C81.9121 41.5176 80.9648 39.2227 79.0703 37.3281C77.1758 35.4336 74.8906 34.4863 72.2148 34.4863ZM58.9727 15.2383C59.9297 15.2383 60.7598 15.5801 61.4629 16.2637C62.166 16.9668 62.5176 17.8066 62.5176 18.7832V30.1797C64.7246 28.2266 67.957 27.25 72.2148 27.25C76.8633 27.25 80.8379 28.9004 84.1387 32.2012C87.4395 35.502 89.0898 39.4766 89.0898 44.125C89.0898 48.7734 87.4395 52.748 84.1387 56.0488C80.8379 59.3496 76.8633 61 72.2148 61C67.5664 61 63.6016 59.3594 60.3203 56.0781C57.0195 52.8164 55.3594 48.8613 55.3398 44.2129V18.7832C55.3398 17.8066 55.6914 16.9668 56.3945 16.2637C57.0977 15.5801 57.9277 15.2383 58.8848 15.2383H58.9727ZM98.7871 27.25C99.7832 27.25 100.613 27.6016 101.277 28.3047C101.98 29.0078 102.332 29.8477 102.332 30.8242V57.4551C102.332 58.4512 101.98 59.2812 101.277 59.9453C100.613 60.6484 99.7832 61 98.7871 61H98.7285C97.752 61 96.9121 60.6484 96.209 59.9453C95.5059 59.2812 95.1543 58.4512 95.1543 57.4551V30.8242C95.1543 29.8477 95.5059 29.0078 96.209 28.3047C96.9121 27.6016 97.752 27.25 98.7285 27.25H98.7871ZM98.7578 23.4414C97.625 23.4414 96.6582 23.041 95.8574 22.2402C95.0566 21.4395 94.6562 20.4727 94.6562 19.3398C94.6562 18.2266 95.0566 17.2695 95.8574 16.4688C96.6582 15.668 97.625 15.2676 98.7578 15.2676C99.8711 15.2676 100.828 15.668 101.629 16.4688C102.449 17.25 102.859 18.207 102.859 19.3398C102.859 20.4922 102.449 21.459 101.629 22.2402C100.828 23.041 99.8711 23.4414 98.7578 23.4414ZM112.938 15.2383C113.895 15.2383 114.725 15.5801 115.428 16.2637C116.131 16.9668 116.482 17.8066 116.482 18.7832V27.25H120.877C121.834 27.25 122.664 27.6016 123.367 28.3047C124.07 29.0078 124.422 29.8477 124.422 30.8242V30.8828C124.422 31.8789 124.07 32.709 123.367 33.373C122.664 34.0762 121.834 34.4277 120.877 34.4277H116.482V51.8008C116.482 52.3672 116.678 52.8457 117.068 53.2363C117.459 53.627 117.947 53.8223 118.533 53.8223H120.877C121.834 53.8223 122.664 54.1738 123.367 54.877C124.07 55.5801 124.422 56.4199 124.422 57.3965V57.4551C124.422 58.4512 124.07 59.2812 123.367 59.9453C122.664 60.6484 121.834 61 120.877 61H118.533C115.994 61 113.816 60.1016 112 58.3047C110.203 56.4883 109.305 54.3203 109.305 51.8008V18.7832C109.305 17.8066 109.656 16.9668 110.359 16.2637C111.062 15.5801 111.893 15.2383 112.85 15.2383H112.938ZM137.605 34.4277C136.746 34.4277 136.023 34.7207 135.438 35.3066C134.852 35.9121 134.559 36.6348 134.559 37.4746C134.559 38.6465 135.125 39.5254 136.258 40.1113C136.648 40.3262 138.279 40.8145 141.15 41.5762C143.475 42.2402 145.203 43.1094 146.336 44.1836C147.957 45.7266 148.768 47.9238 148.768 50.7754C148.768 53.5879 147.771 56 145.779 58.0117C143.768 60.0039 141.355 61 138.543 61H130.896C129.939 61 129.109 60.6484 128.406 59.9453C127.703 59.2812 127.352 58.4512 127.352 57.4551V57.3965C127.352 56.4199 127.703 55.5801 128.406 54.877C129.109 54.1738 129.939 53.8223 130.896 53.8223H138.836C139.695 53.8223 140.418 53.5293 141.004 52.9434C141.59 52.3574 141.883 51.6348 141.883 50.7754C141.883 49.7012 141.326 48.8906 140.213 48.3438C139.92 48.207 138.279 47.7188 135.291 46.8789C132.967 46.1953 131.238 45.2969 130.105 44.1836C128.484 42.6016 127.674 40.3652 127.674 37.4746C127.674 34.6621 128.67 32.2598 130.662 30.2676C132.674 28.2559 135.086 27.25 137.898 27.25H143.289C144.266 27.25 145.105 27.6016 145.809 28.3047C146.512 29.0078 146.863 29.8477 146.863 30.8242V30.8828C146.863 31.8789 146.512 32.709 145.809 33.373C145.105 34.0762 144.266 34.4277 143.289 34.4277H137.605Z" fill="url(#paint0_linear_374_21)"/>
<defs>
<linearGradient id="paint0_linear_374_21" x1="36.9412" y1="39.5294" x2="153.941" y2="39.5294" gradientUnits="userSpaceOnUse">
<stop stop-color="#A77EFF"/>
<stop offset="1" stop-color="#FF7CE5"/>
</linearGradient>
</defs>
</svg>
