<svg width="200" height="148" viewBox="0 0 200 148" fill="none" xmlns="http://www.w3.org/2000/svg">
<g filter="url(#filter0_bf_370_38)">
<ellipse cx="99.5294" cy="74" rx="95.5294" ry="70" fill="#800080" fill-opacity="0.3"/>
</g>
<path d="M141.664 68.8983C140.805 68.8983 140.082 69.1913 139.496 69.7772C138.91 70.3827 138.617 71.1053 138.617 71.9452C138.617 73.1171 139.184 73.996 140.317 74.5819C140.707 74.7968 142.338 75.285 145.209 76.0468C147.533 76.7108 149.262 77.58 150.395 78.6542C152.016 80.1971 152.826 82.3944 152.826 85.246C152.826 88.0585 151.83 90.4706 149.838 92.4823C147.826 94.4745 145.414 95.4706 142.602 95.4706H134.955C133.998 95.4706 133.168 95.119 132.465 94.4159C131.762 93.7518 131.41 92.9218 131.41 91.9257V91.8671C131.41 90.8905 131.762 90.0507 132.465 89.3475C133.168 88.6444 133.998 88.2928 134.955 88.2928H142.895C143.754 88.2928 144.477 87.9999 145.063 87.4139C145.649 86.828 145.942 86.1053 145.942 85.246C145.942 84.1718 145.385 83.3612 144.272 82.8143C143.979 82.6776 142.338 82.1893 139.35 81.3495C137.026 80.6659 135.297 79.7675 134.164 78.6542C132.543 77.0721 131.733 74.8358 131.733 71.9452C131.733 69.1327 132.729 66.7303 134.721 64.7382C136.733 62.7264 139.145 61.7206 141.957 61.7206H147.348C148.324 61.7206 149.164 62.0721 149.867 62.7753C150.571 63.4784 150.922 64.3182 150.922 65.2948V65.3534C150.922 66.3495 150.571 67.1796 149.867 67.8436C149.164 68.5468 148.324 68.8983 147.348 68.8983H141.664Z" fill="white"/>
<path d="M116.996 49.7089C117.953 49.7089 118.783 50.0507 119.487 50.7343C120.19 51.4374 120.541 52.2772 120.541 53.2538V61.7206H124.936C125.893 61.7206 126.723 62.0721 127.426 62.7753C128.129 63.4784 128.481 64.3182 128.481 65.2948V65.3534C128.481 66.3495 128.129 67.1796 127.426 67.8436C126.723 68.5468 125.893 68.8983 124.936 68.8983H120.541V86.2714C120.541 86.8378 120.737 87.3163 121.127 87.7069C121.518 88.0975 122.006 88.2928 122.592 88.2928H124.936C125.893 88.2928 126.723 88.6444 127.426 89.3475C128.129 90.0507 128.481 90.8905 128.481 91.8671V91.9257C128.481 92.9218 128.129 93.7518 127.426 94.4159C126.723 95.119 125.893 95.4706 124.936 95.4706H122.592C120.053 95.4706 117.875 94.5721 116.059 92.7753C114.262 90.9589 113.364 88.7909 113.364 86.2714V53.2538C113.364 52.2772 113.715 51.4374 114.418 50.7343C115.121 50.0507 115.951 49.7089 116.908 49.7089H116.996Z" fill="white"/>
<path d="M102.846 61.7206C103.842 61.7206 104.672 62.0721 105.336 62.7753C106.039 63.4784 106.391 64.3182 106.391 65.2948V91.9257C106.391 92.9218 106.039 93.7518 105.336 94.4159C104.672 95.119 103.842 95.4706 102.846 95.4706H102.787C101.811 95.4706 100.971 95.119 100.268 94.4159C99.5647 93.7518 99.2131 92.9218 99.2131 91.9257V65.2948C99.2131 64.3182 99.5647 63.4784 100.268 62.7753C100.971 62.0721 101.811 61.7206 102.787 61.7206H102.846ZM102.817 57.912C101.684 57.912 100.717 57.5116 99.9163 56.7108C99.1155 55.91 98.7151 54.9432 98.7151 53.8104C98.7151 52.6971 99.1155 51.7401 99.9163 50.9393C100.717 50.1385 101.684 49.7382 102.817 49.7382C103.93 49.7382 104.887 50.1385 105.688 50.9393C106.508 51.7206 106.918 52.6776 106.918 53.8104C106.918 54.9628 106.508 55.9296 105.688 56.7108C104.887 57.5116 103.93 57.912 102.817 57.912Z" fill="white"/>
<path d="M76.2737 68.9569C73.5784 68.9569 71.2834 69.9042 69.3889 71.7987C67.5139 73.6932 66.5764 75.9882 66.5764 78.6835C66.5764 81.3593 67.5139 83.6444 69.3889 85.5389C71.2834 87.4335 73.5784 88.3807 76.2737 88.3807C78.9495 88.3807 81.2346 87.4335 83.1292 85.5389C85.0237 83.6444 85.9709 81.3593 85.9709 78.6835C85.9709 75.9882 85.0237 73.6932 83.1292 71.7987C81.2346 69.9042 78.9495 68.9569 76.2737 68.9569ZM63.0315 49.7089C63.9885 49.7089 64.8186 50.0507 65.5217 50.7343C66.2249 51.4374 66.5764 52.2772 66.5764 53.2538V64.6503C68.7834 62.6971 72.0159 61.7206 76.2737 61.7206C80.9221 61.7206 84.8967 63.371 88.1975 66.6718C91.4983 69.9725 93.1487 73.9471 93.1487 78.5956C93.1487 83.244 91.4983 87.2186 88.1975 90.5194C84.8967 93.8202 80.9221 95.4706 76.2737 95.4706C71.6252 95.4706 67.6604 93.83 64.3792 90.5487C61.0784 87.287 59.4182 83.3319 59.3987 78.6835V53.2538C59.3987 52.2772 59.7502 51.4374 60.4534 50.7343C61.1565 50.0507 61.9866 49.7089 62.9436 49.7089H63.0315Z" fill="white"/>
<path d="M48.7932 49.7089C49.7502 49.7089 50.5803 50.0507 51.2834 50.7343C51.9866 51.4374 52.3381 52.2772 52.3381 53.2538V91.9257C52.3381 92.9218 51.9866 93.7518 51.2834 94.4159C50.5803 95.119 49.7502 95.4706 48.7932 95.4706H48.7053C47.7483 95.4706 46.9182 95.119 46.2151 94.4159C45.512 93.7518 45.1604 92.9218 45.1604 91.9257V53.2538C45.1604 52.2772 45.512 51.4374 46.2151 50.7343C46.9182 50.0507 47.7483 49.7089 48.7053 49.7089H48.7932Z" fill="white"/>
<defs>
<filter id="filter0_bf_370_38" x="0" y="0" width="199.059" height="148" filterUnits="userSpaceOnUse" color-interpolation-filters="sRGB">
<feFlood flood-opacity="0" result="BackgroundImageFix"/>
<feGaussianBlur in="BackgroundImageFix" stdDeviation="2"/>
<feComposite in2="SourceAlpha" operator="in" result="effect1_backgroundBlur_370_38"/>
<feBlend mode="normal" in="SourceGraphic" in2="effect1_backgroundBlur_370_38" result="shape"/>
<feGaussianBlur stdDeviation="2" result="effect2_foregroundBlur_370_38"/>
</filter>
</defs>
</svg>
